<?xml version="1.0" standalone="no"?>
<!DOCTYPE svg PUBLIC "-//W3C//DTD SVG 20010904//EN"
 "http://www.w3.org/TR/2001/REC-SVG-20010904/DTD/svg10.dtd">
<svg version="1.0" xmlns="http://www.w3.org/2000/svg"
 width="800.000000pt" height="600.000000pt" viewBox="0 0 800.000000 600.000000"
 preserveAspectRatio="xMidYMid meet">

<g transform="translate(0.000000,600.000000) scale(0.100000,-0.100000)"
fill="#000000" stroke="none">
<path d="M3850 4494 c-602 -77 -1084 -468 -1270 -1030 -93 -283 -93 -645 0
-927 17 -51 34 -98 39 -105 5 -9 77 28 253 129 l246 141 -19 71 c-29 108 -35
272 -15 385 57 327 294 610 604 722 459 166 971 -50 1173 -496 16 -35 29 -70
29 -77 0 -8 -163 -108 -362 -223 -724 -417 -873 -504 -873 -515 0 -16 121 -87
180 -105 78 -25 228 -30 304 -10 85 22 110 35 556 293 209 121 472 273 585
338 113 65 207 119 209 121 9 8 -24 156 -59 264 -75 231 -183 404 -364 586
-219 219 -469 355 -764 415 -95 19 -371 33 -452 23z"/>
<path d="M3868 3545 c-189 -48 -346 -204 -403 -400 -16 -55 -25 -229 -12 -241
3 -3 133 68 289 158 155 91 361 209 455 264 95 54 173 101 173 104 0 11 -119
79 -175 100 -77 29 -242 37 -327 15z"/>
<path d="M5300 2666 c-466 -273 -852 -493 -917 -523 -328 -151 -743 -81 -1012
172 l-66 63 -239 -138 c-132 -75 -242 -142 -243 -147 -6 -17 102 -138 194
-218 204 -179 447 -297 718 -351 128 -26 404 -26 540 0 592 111 1066 565 1196
1146 21 97 22 100 12 99 -5 -1 -87 -47 -183 -103z"/>
</g>
</svg>
